<svg id="Calque_1" data-name="Calque 1" xmlns="http://www.w3.org/2000/svg" viewBox="0 0 353.54 133.55"><defs><style>.cls-1{fill:none;stroke:#231f20;stroke-miterlimit:10;stroke-width:0.25px;}</style></defs><title>logo</title><path class="cls-1" d="M493.28,257.53l-4.6,11.67h-2.13A51.36,51.36,0,0,1,483,250.13c0-27.94,26.59-36.46,26.59-55a9.27,9.27,0,0,0-.9-4.6l2.13-1c2.92,2.36,4.82,6.51,4.82,12.45s-1.8,13.13-5.95,21a20.74,20.74,0,0,1,14.47-6.51c10.55,0,14.92,7.29,14.92,16.27,0,17.39-15.93,37.59-34.11,37.59C494.85,270.32,492.95,263.14,493.28,257.53Zm35.57-31.64c0-2.92-2-4.82-5.16-4.82-9.31,0-17.28,9.65-24.23,28.95-3.25,9-1.46,15.48,4,15.48,9.09,0,8.64-10.55,13.69-21.43C522.12,233.52,528.85,232.51,528.85,225.89Z" transform="translate(-275.63 -189.39)"/><path class="cls-1" d="M574.18,189.54c3.48,3,4.71,7.52,4.71,12.57,0,10.1-5.16,22.55-8.53,30.29l-16.49,36.8H551c-3-6.73-4.71-13.24-4.6-19.07,0-27.94,26.59-38,26.59-55.31a9.73,9.73,0,0,0-.9-4.26Z" transform="translate(-275.63 -189.39)"/><path class="cls-1" d="M596.51,270.32c-13.24,0-20.42-6.17-20.42-18.18,0-20.42,22.66-35.68,37.7-35.68,9.87,0,15.26,4,15.26,11.67,0,6.39-4.82,11.22-11.44,14-6.28,2.69-14,3.14-21.65,3.25-5.83,9.76-8.86,9-8.86,14.25,0,3.7,3.59,5.95,9,5.95,9.87,0,14.81-4.49,15.37-13.24h4C616.37,264.26,608.18,270.32,596.51,270.32Zm1.35-28c5.27,0,8.64-1.68,11-3.81a18.07,18.07,0,0,0,4.15-6.84c2.47-6.73,2.58-11.89-1.91-11.89C603.69,219.72,605.48,227.13,597.86,242.27Z" transform="translate(-275.63 -189.39)"/><path class="cls-1" d="M456.27,218.49c10,4.46,16.14,19.92,12.7,27.29-4,8.53-17.4,13.9-21.79,15.1a21.37,21.37,0,0,1-9.72.29,17.2,17.2,0,0,1-7.09-3.38c-3.78-3.26-5.83-5.32-5.83-5.32l-1.94.46c-2.29.64-2.89,3.44-3.2,4.46-1.57,5.11-3.45,24.33,9.61,27,1.86.38,3.71,1.57,9.44-1.2" transform="translate(-275.63 -189.39)"/><path class="cls-1" d="M467.24,268.89s3.65,1,8.11,7.89,3.95,22.29-2.66,30.72c-8.75,11.15-32.26,17.83-48.05,14.42-16.65-3.6-28.83-27.29-30.38-44.28s11.81-29.66,15.27-33.46c7.4-8.12,6.22-11.26,8.26-14.67a11.8,11.8,0,0,1,2.55-2.9c8.79-7.92,17.16-9.72,17.16-9.72a33,33,0,0,1,19,1.66" transform="translate(-275.63 -189.39)"/><path class="cls-1" d="M593.85,238.77" transform="translate(-275.63 -189.39)"/><path class="cls-1" d="M296.85,238.4l-12.57,30.74H278.9a53.67,53.67,0,0,1-3.14-19c0-28.39,20.87-39.72,28.72-58.45,3.48,0,14.59-.79,21.77-.79,13.69,0,22,6.39,22,18.29,0,15.93-15.26,31.41-35.23,31.41A61.75,61.75,0,0,1,296.85,238.4Zm25.58-9.54c1.8-3.81,2.24-5.39,5.16-12.57s5.39-8,5.39-12.68-3.93-7.18-10-7.18c-4.38,0-10.55.45-12.12.67-1.68,9.87-5,19.41-8.64,28.16l-3.25,8c2.8,1,7,1.8,13,1.8S320.75,232.34,322.43,228.86Z" transform="translate(-275.63 -189.39)"/><path class="cls-1" d="M363.61,270.26c-13.24,0-20.42-6.17-20.42-18.18,0-20.42,22.66-35.68,37.7-35.68,9.87,0,15.26,4,15.26,11.67,0,6.39-4.82,11.22-11.44,14-6.28,2.69-14,3.14-21.65,3.25-5.83,9.76-8.86,9-8.86,14.25,0,3.7,3.59,5.95,9,5.95,9.87,0,14.81-4.49,15.37-13.24h4C383.47,264.21,375.28,270.26,363.61,270.26Zm1.35-28c5.27,0,8.64-1.68,11-3.81a18.08,18.08,0,0,0,4.15-6.84c2.47-6.73,2.58-11.89-1.91-11.89C370.79,219.66,372.58,227.07,365,242.22Z" transform="translate(-275.63 -189.39)"/><path class="cls-1" d="M461.55,255.72" transform="translate(-275.63 -189.39)"/><path class="cls-1" d="M457.89,230.35" transform="translate(-275.63 -189.39)"/></svg>