<svg xmlns="http://www.w3.org/2000/svg" viewBox="0 0 2063.71 1170.94"><defs><style>.cls-1,.cls-2{fill:#231f20;}.cls-1,.cls-2,.cls-3{stroke:#231f20;stroke-miterlimit:10;}.cls-1{stroke-width:3px;}.cls-2{stroke-width:2px;}.cls-3{fill:none;stroke-width:0.25px;}</style></defs><title>packaging_calques_separes</title><g id="_gravure_plies" data-name="(gravure) plies"><line class="cls-1" x1="814.2" y1="4.29" x2="814.2" y2="1168.95"/><line class="cls-1" x1="1239.67" y1="3.63" x2="1239.67" y2="1168.29"/><line class="cls-1" x1="1588.24" y1="350.71" x2="1588.24" y2="818.04"/><line class="cls-1" x1="1588.28" y1="351.69" x2="2013.72" y2="351.69"/><line class="cls-1" x1="1588.31" y1="819.38" x2="2013.75" y2="819.38"/><line class="cls-1" x1="2013.48" y1="477.58" x2="2013.48" y2="693.56"/><line class="cls-1" x1="814.28" y1="351.57" x2="1238.76" y2="351.57"/><line class="cls-1" x1="814.39" y1="819.43" x2="1240.45" y2="819.43"/><line class="cls-1" x1="465.54" y1="351.57" x2="465.54" y2="476.06"/><line class="cls-1" x1="465.54" y1="696.07" x2="465.54" y2="820.56"/><line class="cls-1" x1="40.68" y1="350.46" x2="40.68" y2="819.46"/></g><g id="_découpe_contour" data-name="(découpe) contour"><path class="cls-2" d="M283.74,482.26c-20,0-36.35,17.83-36.35,38.52h-2c0-21.79,17.2-40.52,38.35-40.52" transform="translate(-244.37 -129.08)"/><path class="cls-2" d="M284.93,949c-21.79,0-39.52-16.2-39.52-37.35h2c0,20,16.83,35.35,37.52,35.35" transform="translate(-244.37 -129.08)"/><rect class="cls-2" x="1" y="389.54" width="2" height="395.67"/><line class="cls-1" x1="39.29" y1="351.71" x2="814.51" y2="351.71"/><line class="cls-1" x1="40.51" y1="819.44" x2="815.74" y2="819.44"/><rect class="cls-2" x="998.57" y="963.83" width="64.43" height="2" transform="translate(-587.95 512.46) rotate(-29.87)"/><rect class="cls-2" x="1029.69" y="1250.38" width="2" height="63" transform="translate(-828.03 1468.05) rotate(-62.25)"/><rect class="cls-2" x="757.86" y="851.05" width="2" height="288"/><line class="cls-1" x1="813.43" y1="1167.58" x2="1240.68" y2="1167.58"/><rect class="cls-1" x="1511.42" y="933.17" width="2" height="64.43" transform="translate(-322.34 1667.02) rotate(-60.13)"/><rect class="cls-1" x="1481.02" y="1281.44" width="63" height="2" transform="translate(-667.65 723.22) rotate(-27.77)"/><rect class="cls-1" x="1294.61" y="851.61" width="2" height="288"/><line class="cls-1" x1="1239.66" y1="819.43" x2="1601.73" y2="819.43"/><path class="cls-1" d="M2227.74,1070.74h0v0H1869.55c-13.2-.09-24-11.73-24.34-26.2h0v-96h2v95.2h0c0,13.79,10.09,25,22.5,25h359c12-.54,21.58-11.54,21.58-25h0v-95.2h2v96h0c-.37,13.73-10.08,24.92-22.36,26.1v.08l-1.71,0Z" transform="translate(-244.37 -129.08)"/><line class="cls-1" x1="2005.72" y1="819.5" x2="2015.05" y2="819.5"/><line class="cls-1" x1="2013.49" y1="692.21" x2="2013.49" y2="818.8"/><rect class="cls-2" x="2013.21" y="477.96" width="34" height="2"/><path class="cls-2" d="M2307.08,618.53h-2c0-5.24-6.06-9.5-13.5-9.5v-2C2300.13,607,2307.08,612.19,2307.08,618.53Z" transform="translate(-244.37 -129.08)"/><rect class="cls-2" x="2013.21" y="692.68" width="34" height="2"/><path class="cls-2" d="M2291.58,823.76v-2c7.44,0,13.5-4.26,13.5-9.5h2C2307.08,818.6,2300.13,823.76,2291.58,823.76Z" transform="translate(-244.37 -129.08)"/><rect class="cls-2" x="2060.67" y="488.54" width="2" height="195.67"/><line class="cls-1" x1="2013.48" y1="480.5" x2="2013.48" y2="350.5"/><line class="cls-1" x1="2006.35" y1="351.61" x2="2014.98" y2="351.61"/><path class="cls-2" d="M1846.67,480.41h-2v-96h0c.38-14.47,11.14-26.11,24.34-26.2h358.19v0h.44l1.69,0v.08c12.28,1.17,22,12.36,22.35,26.1h0v96h-2v-95.2h0c0-13.44-9.59-24.44-21.57-25h-359c-12.41,0-22.5,11.21-22.5,25h0Z" transform="translate(-244.37 -129.08)"/><line class="cls-1" x1="1239.51" y1="351.63" x2="1603.14" y2="351.63"/><rect class="cls-1" x="1511.13" y="115.82" width="2" height="64.43" transform="translate(386.29 1256.48) rotate(-60.13)"/><rect class="cls-1" x="1480.73" y="464.08" width="63" height="2" transform="translate(-286.91 628.97) rotate(-27.77)"/><rect class="cls-1" x="1294.32" y="34.26" width="2" height="288"/><line class="cls-1" x1="814.01" y1="3.13" x2="1240.15" y2="3.13"/><rect class="cls-1" x="998.39" y="147.25" width="64.43" height="2" transform="translate(-181.29 403.89) rotate(-29.87)"/><rect class="cls-1" x="1029.5" y="433.79" width="2" height="63" transform="translate(-105.48 1031.53) rotate(-62.25)"/><rect class="cls-1" x="757.68" y="34.46" width="2" height="288"/><path class="cls-1" d="M710.28,826.8a4.5,4.5,0,0,1-4.5-4.5V609.14a4.5,4.5,0,0,1,9,0V822.3A4.51,4.51,0,0,1,710.28,826.8Zm0-220.17a2.5,2.5,0,0,0-2.5,2.5V822.3a2.5,2.5,0,0,0,5,0V609.14A2.5,2.5,0,0,0,710.28,606.64Z" transform="translate(-244.37 -129.08)"/></g><g id="gravure_peeble"><path class="cls-3" d="M2057.75,673.3l11.67,4.6V680a51.36,51.36,0,0,1-19.07,3.59c-27.94,0-36.46-26.59-55-26.59a9.27,9.27,0,0,0-4.6.9l-1-2.13c2.36-2.92,6.51-4.82,12.45-4.82s13.13,1.8,21,5.95a20.74,20.74,0,0,1-6.51-14.47c0-10.55,7.29-14.92,16.27-14.92,17.39,0,37.59,15.93,37.59,34.11C2070.54,671.72,2063.36,673.63,2057.75,673.3Zm-31.64-35.57c-2.92,0-4.82,2-4.82,5.16,0,9.31,9.65,17.28,28.95,24.23,9,3.25,15.48,1.46,15.48-4,0-9.09-10.55-8.64-21.43-13.69C2033.74,644.46,2032.73,637.73,2026.11,637.73Z" transform="translate(-244.37 -129.08)"/><path class="cls-3" d="M1989.76,592.4c3-3.48,7.52-4.71,12.57-4.71,10.1,0,22.55,5.16,30.29,8.53l36.8,16.49v2.92c-6.73,3-13.24,4.71-19.07,4.6-27.94,0-38-26.59-55.31-26.59a9.73,9.73,0,0,0-4.26.9Z" transform="translate(-244.37 -129.08)"/><path class="cls-3" d="M2070.54,570.07c0,13.24-6.17,20.42-18.18,20.42-20.42,0-35.68-22.66-35.68-37.7,0-9.87,4-15.26,11.67-15.26,6.39,0,11.22,4.82,14,11.44,2.69,6.28,3.14,14,3.25,21.65,9.76,5.83,9,8.86,14.25,8.86,3.7,0,5.95-3.59,5.95-9,0-9.87-4.49-14.81-13.24-15.37v-4C2064.48,550.21,2070.54,558.4,2070.54,570.07Zm-28-1.35c0-5.27-1.68-8.64-3.81-11a18.07,18.07,0,0,0-6.84-4.15c-6.73-2.47-11.89-2.58-11.89,1.91C2019.94,562.89,2027.35,561.1,2042.49,568.72Z" transform="translate(-244.37 -129.08)"/><path class="cls-3" d="M2018.72,710.31c4.46-10,19.92-16.14,27.29-12.7,8.53,4,13.9,17.4,15.1,21.79a21.37,21.37,0,0,1,.29,9.72,17.2,17.2,0,0,1-3.38,7.09c-3.26,3.78-5.32,5.83-5.32,5.83l.46,1.94c.64,2.29,3.44,2.89,4.46,3.2,5.11,1.57,24.33,3.45,27-9.61.38-1.86,1.57-3.71-1.2-9.44" transform="translate(-244.37 -129.08)"/><path class="cls-3" d="M2069.11,699.34s1-3.65,7.89-8.11,22.29-3.95,30.72,2.66c11.15,8.75,17.83,32.26,14.42,48.05-3.6,16.65-27.29,28.83-44.28,30.38s-29.66-11.81-33.46-15.27c-8.12-7.4-11.26-6.22-14.67-8.26a11.8,11.8,0,0,1-2.9-2.55c-7.92-8.79-9.72-17.16-9.72-17.16a33,33,0,0,1,1.66-19" transform="translate(-244.37 -129.08)"/><path class="cls-3" d="M2039,572.73" transform="translate(-244.37 -129.08)"/><path class="cls-3" d="M2038.62,869.73l30.74,12.57v5.39a53.67,53.67,0,0,1-19,3.14c-28.39,0-39.72-20.87-58.45-28.72,0-3.48-.79-14.59-.79-21.77,0-13.69,6.39-22,18.29-22,15.93,0,31.41,15.26,31.41,35.23A61.75,61.75,0,0,1,2038.62,869.73Zm-9.54-25.58c-3.81-1.8-5.39-2.24-12.57-5.16s-8-5.39-12.68-5.39-7.18,3.93-7.18,10c0,4.38.45,10.55.67,12.12,9.87,1.68,19.41,5,28.16,8.64l8,3.25c1-2.8,1.8-7,1.8-13S2032.56,845.83,2029.09,844.15Z" transform="translate(-244.37 -129.08)"/><path class="cls-3" d="M2070.49,803c0,13.24-6.17,20.42-18.18,20.42-20.42,0-35.68-22.66-35.68-37.7,0-9.87,4-15.26,11.67-15.26,6.39,0,11.22,4.82,14,11.44,2.69,6.28,3.14,14,3.25,21.65,9.76,5.83,9,8.86,14.25,8.86,3.7,0,5.95-3.59,5.95-9,0-9.87-4.49-14.81-13.24-15.37v-4C2064.43,783.11,2070.49,791.3,2070.49,803Zm-28-1.35c0-5.27-1.68-8.64-3.81-11a18.08,18.08,0,0,0-6.84-4.15c-6.73-2.47-11.89-2.58-11.89,1.91C2019.89,795.79,2027.29,794,2042.44,801.63Z" transform="translate(-244.37 -129.08)"/><path class="cls-3" d="M2055.94,705" transform="translate(-244.37 -129.08)"/><path class="cls-3" d="M2030.57,708.69" transform="translate(-244.37 -129.08)"/><g id="the_e"><path class="cls-3" d="M1018.35,500s.54-1.91,4.14-4.25,11.69-2.07,16.11,1.4c5.85,4.59,9.35,16.92,7.56,25.2-1.89,8.73-14.31,15.12-23.22,15.93s-15.55-6.19-17.55-8c-4.26-3.88-5.91-3.26-7.69-4.33a6.19,6.19,0,0,1-1.52-1.34,21.8,21.8,0,0,1-5.1-9,17.32,17.32,0,0,1,.87-10" transform="translate(-244.37 -129.08)"/><path class="cls-3" d="M991.92,505.74c2.34-5.22,10.45-8.46,14.31-6.66,4.48,2.09,7.29,9.12,7.92,11.43a11.21,11.21,0,0,1,.15,5.1,9,9,0,0,1-1.77,3.72c-1.71,2-2.79,3.06-2.79,3.06l.24,1c.34,1.2,1.81,1.52,2.34,1.68,2.68.82,12.76,1.81,14.16-5,.2-1,.82-1.95-.63-5" transform="translate(-244.37 -129.08)"/><path class="cls-3" d="M1018.67,568.6v1.51h-.72l-.2-1.51h-2.21l-.14-1.9h2.35v-2.52h.92v2.52h5.81c.86,0,1.47-.23,1.47-1.15,0-.76-.35-1.09-.94-1.09V564c1.41,0,2.23.61,2.23,2.15,0,1.74-.92,2.48-3,2.48Z" transform="translate(-244.37 -129.08)"/><path class="cls-3" d="M1027,556.06h-5c-2.09,0-3,.45-3,1.86s1.54,2.17,4.12,2.21H1027V562h-13.78l-.1-1.9h7.35c-1.66-.31-3-1.11-3-3,0-2.27,1.47-2.93,3.71-2.93H1027Z" transform="translate(-244.37 -129.08)"/><path class="cls-3" d="M1017.46,548c0-2.5,1.6-3.36,3.15-3.36a14.75,14.75,0,0,1,1.56.12v5.47h.31c2.15,0,3.42-.92,3.42-2.74a2.23,2.23,0,0,0-2.11-2.48v-.68a3.25,3.25,0,0,1,3.44,3.6c0,2.62-1.56,4.22-4.59,4.22S1017.46,550.55,1017.46,548Zm3.71,2.15v-3.95a2.56,2.56,0,0,0-.53,0,1.52,1.52,0,0,0-1.7,1.72C1018.94,549.06,1019.78,549.86,1021.17,550.12Z" transform="translate(-244.37 -129.08)"/></g></g></svg>